<mxfile host="65bd71144e">
    <diagram id="q_SyrXB1hb_qUSjCRa4C" name="Página-1">
        <mxGraphModel dx="1216" dy="1953" grid="1" gridSize="10" guides="1" tooltips="1" connect="1" arrows="1" fold="1" page="1" pageScale="1" pageWidth="827" pageHeight="1169" math="0" shadow="0">
            <root>
                <mxCell id="0"/>
                <mxCell id="1" parent="0"/>
                <mxCell id="qMkH_yW-luxWWShTku8l-3" value="COLECTIVO" style="rounded=0;whiteSpace=wrap;html=1;" parent="1" vertex="1">
                    <mxGeometry x="500" y="210" width="120" height="60" as="geometry"/>
                </mxCell>
                <mxCell id="qMkH_yW-luxWWShTku8l-5" style="edgeStyle=orthogonalEdgeStyle;rounded=0;orthogonalLoop=1;jettySize=auto;html=1;entryX=0;entryY=0.5;entryDx=0;entryDy=0;strokeColor=default;endArrow=none;endFill=0;startArrow=none;" parent="1" target="qMkH_yW-luxWWShTku8l-17" edge="1">
                    <mxGeometry relative="1" as="geometry">
                        <mxPoint x="807" y="-120" as="sourcePoint"/>
                        <mxPoint x="880" y="-120" as="targetPoint"/>
                    </mxGeometry>
                </mxCell>
                <mxCell id="qMkH_yW-luxWWShTku8l-8" value="&lt;b&gt;id_usuario&lt;/b&gt;&lt;br&gt;nombre&lt;br&gt;nombre_usuario&lt;br&gt;correo&lt;br&gt;contraseña&lt;br&gt;imágen_perfil&lt;br&gt;Rol (Admin, General)" style="text;strokeColor=none;fillColor=none;spacingLeft=4;spacingRight=4;overflow=hidden;rotatable=0;points=[[0,0.5],[1,0.5]];portConstraint=eastwest;fontSize=12;html=1;" parent="1" vertex="1">
                    <mxGeometry x="1130" y="-160" width="150" height="130" as="geometry"/>
                </mxCell>
                <mxCell id="qMkH_yW-luxWWShTku8l-9" value="&lt;b&gt;id_espacio&lt;br&gt;&lt;/b&gt;nombre&lt;br&gt;&lt;i&gt;colectivos&lt;/i&gt;&lt;br&gt;&lt;i&gt;usuarios_premium&lt;/i&gt;&lt;br&gt;descripción" style="text;strokeColor=none;fillColor=none;spacingLeft=4;spacingRight=4;overflow=hidden;rotatable=0;points=[[0,0.5],[1,0.5]];portConstraint=eastwest;fontSize=12;html=1;" parent="1" vertex="1">
                    <mxGeometry x="500" y="-240" width="120" height="80" as="geometry"/>
                </mxCell>
                <mxCell id="qMkH_yW-luxWWShTku8l-10" value="" style="edgeStyle=orthogonalEdgeStyle;rounded=0;orthogonalLoop=1;jettySize=auto;html=1;strokeColor=default;endArrow=none;endFill=0;" parent="1" target="qMkH_yW-luxWWShTku8l-21" edge="1">
                    <mxGeometry relative="1" as="geometry">
                        <mxPoint x="620" y="-120" as="sourcePoint"/>
                        <mxPoint x="707" y="-120" as="targetPoint"/>
                    </mxGeometry>
                </mxCell>
                <mxCell id="qMkH_yW-luxWWShTku8l-13" value="(N:M)" style="text;strokeColor=none;fillColor=none;spacingLeft=4;spacingRight=4;overflow=hidden;rotatable=0;points=[[0,0.5],[1,0.5]];portConstraint=eastwest;fontSize=12;" parent="1" vertex="1">
                    <mxGeometry x="780.5" y="-190" width="40" height="30" as="geometry"/>
                </mxCell>
                <mxCell id="qMkH_yW-luxWWShTku8l-14" value="(0,n)" style="text;strokeColor=none;fillColor=none;spacingLeft=4;spacingRight=4;overflow=hidden;rotatable=0;points=[[0,0.5],[1,0.5]];portConstraint=eastwest;fontSize=12;" parent="1" vertex="1">
                    <mxGeometry x="620" y="-90" width="40" height="30" as="geometry"/>
                </mxCell>
                <mxCell id="qMkH_yW-luxWWShTku8l-15" value="(1,n)" style="text;strokeColor=none;fillColor=none;spacingLeft=4;spacingRight=4;overflow=hidden;rotatable=0;points=[[0,0.5],[1,0.5]];portConstraint=eastwest;fontSize=12;" parent="1" vertex="1">
                    <mxGeometry x="960" y="-90" width="40" height="30" as="geometry"/>
                </mxCell>
                <mxCell id="qMkH_yW-luxWWShTku8l-16" value="ESPACIO" style="rounded=0;whiteSpace=wrap;html=1;" parent="1" vertex="1">
                    <mxGeometry x="500" y="-150" width="120" height="60" as="geometry"/>
                </mxCell>
                <mxCell id="qMkH_yW-luxWWShTku8l-17" value="USUARIO" style="rounded=0;whiteSpace=wrap;html=1;" parent="1" vertex="1">
                    <mxGeometry x="1000" y="-150" width="120" height="60" as="geometry"/>
                </mxCell>
                <mxCell id="qMkH_yW-luxWWShTku8l-18" value="" style="endArrow=none;html=1;rounded=0;entryX=0.5;entryY=1;entryDx=0;entryDy=0;exitX=0.5;exitY=0;exitDx=0;exitDy=0;" parent="1" source="qMkH_yW-luxWWShTku8l-3" target="qMkH_yW-luxWWShTku8l-16" edge="1">
                    <mxGeometry width="50" height="50" relative="1" as="geometry">
                        <mxPoint x="500" y="40" as="sourcePoint"/>
                        <mxPoint x="550" y="-10" as="targetPoint"/>
                    </mxGeometry>
                </mxCell>
                <mxCell id="qMkH_yW-luxWWShTku8l-20" value="(1,n)" style="text;html=1;strokeColor=none;fillColor=none;align=center;verticalAlign=middle;whiteSpace=wrap;rounded=0;" parent="1" vertex="1">
                    <mxGeometry x="460" y="180" width="60" height="30" as="geometry"/>
                </mxCell>
                <mxCell id="qMkH_yW-luxWWShTku8l-21" value="Gestiona" style="rhombus;whiteSpace=wrap;html=1;" parent="1" vertex="1">
                    <mxGeometry x="750" y="-160" width="103" height="80" as="geometry"/>
                </mxCell>
                <mxCell id="qMkH_yW-luxWWShTku8l-24" value="(1,n)" style="text;html=1;strokeColor=none;fillColor=none;align=center;verticalAlign=middle;whiteSpace=wrap;rounded=0;" parent="1" vertex="1">
                    <mxGeometry x="460" y="-90" width="60" height="30" as="geometry"/>
                </mxCell>
                <mxCell id="qMkH_yW-luxWWShTku8l-25" value="(N:M)" style="text;html=1;strokeColor=none;fillColor=none;align=center;verticalAlign=middle;whiteSpace=wrap;rounded=0;" parent="1" vertex="1">
                    <mxGeometry x="604" y="35" width="60" height="30" as="geometry"/>
                </mxCell>
                <mxCell id="qMkH_yW-luxWWShTku8l-38" value="(1,1)" style="text;html=1;strokeColor=none;fillColor=none;align=center;verticalAlign=middle;whiteSpace=wrap;rounded=0;" parent="1" vertex="1">
                    <mxGeometry x="620" y="270" width="60" height="30" as="geometry"/>
                </mxCell>
                <mxCell id="qMkH_yW-luxWWShTku8l-52" value="PUBLICACIÓN" style="rounded=0;whiteSpace=wrap;html=1;" parent="1" vertex="1">
                    <mxGeometry x="1000" y="210" width="120" height="60" as="geometry"/>
                </mxCell>
                <mxCell id="5" style="edgeStyle=none;html=1;endArrow=none;endFill=0;entryX=0;entryY=0.5;entryDx=0;entryDy=0;" parent="1" target="qMkH_yW-luxWWShTku8l-52" edge="1">
                    <mxGeometry relative="1" as="geometry">
                        <mxPoint x="990" y="240" as="targetPoint"/>
                        <mxPoint x="847" y="240" as="sourcePoint"/>
                    </mxGeometry>
                </mxCell>
                <mxCell id="6" style="edgeStyle=none;html=1;entryX=1;entryY=0.5;entryDx=0;entryDy=0;endArrow=none;endFill=0;" parent="1" target="qMkH_yW-luxWWShTku8l-3" edge="1">
                    <mxGeometry relative="1" as="geometry">
                        <mxPoint x="767" y="240" as="sourcePoint"/>
                    </mxGeometry>
                </mxCell>
                <mxCell id="qMkH_yW-luxWWShTku8l-59" value="(1:N)" style="text;html=1;strokeColor=none;fillColor=none;align=center;verticalAlign=middle;whiteSpace=wrap;rounded=0;" parent="1" vertex="1">
                    <mxGeometry x="777" y="170" width="60" height="30" as="geometry"/>
                </mxCell>
                <mxCell id="qMkH_yW-luxWWShTku8l-60" value="(0,n)" style="text;strokeColor=none;fillColor=none;spacingLeft=4;spacingRight=4;overflow=hidden;rotatable=0;points=[[0,0.5],[1,0.5]];portConstraint=eastwest;fontSize=12;" parent="1" vertex="1">
                    <mxGeometry x="960" y="270" width="40" height="30" as="geometry"/>
                </mxCell>
                <mxCell id="8" value="Crea" style="rhombus;whiteSpace=wrap;html=1;" parent="1" vertex="1">
                    <mxGeometry x="750" y="200" width="103" height="80" as="geometry"/>
                </mxCell>
                <mxCell id="9" value="&lt;b&gt;id_colectivo&lt;/b&gt;&lt;br&gt;nombre&lt;br&gt;correo&lt;br&gt;contraseña&lt;br&gt;tipo_colectivo&lt;br&gt;provincia&lt;br&gt;localidad&lt;br&gt;imágen_perfil&lt;br&gt;información:&lt;br&gt;&lt;span style=&quot;white-space: pre;&quot;&gt;&#9;&lt;/span&gt;nombre_colectivo&lt;br&gt;&lt;span style=&quot;white-space: pre;&quot;&gt;&#9;&lt;/span&gt;año_fundación&lt;br&gt;&lt;span style=&quot;white-space: pre;&quot;&gt;&#9;&lt;/span&gt;descripción" style="text;strokeColor=none;fillColor=none;spacingLeft=4;spacingRight=4;overflow=hidden;rotatable=0;points=[[0,0.5],[1,0.5]];portConstraint=eastwest;fontSize=12;html=1;" parent="1" vertex="1">
                    <mxGeometry x="500" y="280" width="150" height="190" as="geometry"/>
                </mxCell>
                <mxCell id="10" value="&lt;b&gt;id_publicación&lt;/b&gt;&lt;br&gt;&lt;i&gt;id_colectivo&lt;br&gt;&lt;/i&gt;tipo_publicación&lt;br&gt;contenido&lt;br&gt;pie&lt;br&gt;fecha_publicación&lt;br&gt;contenido_premium (y/n)" style="text;strokeColor=none;fillColor=none;spacingLeft=4;spacingRight=4;overflow=hidden;rotatable=0;points=[[0,0.5],[1,0.5]];portConstraint=eastwest;fontSize=12;html=1;" parent="1" vertex="1">
                    <mxGeometry x="1130" y="200" width="150" height="130" as="geometry"/>
                </mxCell>
                <mxCell id="11" value="Pertenecen" style="rhombus;whiteSpace=wrap;html=1;" parent="1" vertex="1">
                    <mxGeometry x="508.5" y="10" width="103" height="80" as="geometry"/>
                </mxCell>
            </root>
        </mxGraphModel>
    </diagram>
</mxfile>